<?xml version="1.0" encoding="UTF-8" standalone="no"?>
<!-- Created with Inkscape (http://www.inkscape.org/) -->

<svg
   xmlns:dc="http://purl.org/dc/elements/1.1/"
   xmlns:cc="http://creativecommons.org/ns#"
   xmlns:rdf="http://www.w3.org/1999/02/22-rdf-syntax-ns#"
   xmlns:svg="http://www.w3.org/2000/svg"
   xmlns="http://www.w3.org/2000/svg"
   xmlns:sodipodi="http://sodipodi.sourceforge.net/DTD/sodipodi-0.dtd"
   xmlns:inkscape="http://www.inkscape.org/namespaces/inkscape"
   width="210mm"
   height="297mm"
   viewBox="0 0 210 297"
   version="1.1"
   id="svg4677"
   inkscape:version="0.92.1 r15371"
   sodipodi:docname="logo_technokotiki.svg">
  <defs
     id="defs4671" />
  <sodipodi:namedview
     id="base"
     pagecolor="#ffffff"
     bordercolor="#666666"
     borderopacity="1.0"
     inkscape:pageopacity="0.0"
     inkscape:pageshadow="2"
     inkscape:zoom="0.7"
     inkscape:cx="608.61609"
     inkscape:cy="540.43906"
     inkscape:document-units="mm"
     inkscape:current-layer="layer1"
     showgrid="false"
     inkscape:window-width="1920"
     inkscape:window-height="1008"
     inkscape:window-x="0"
     inkscape:window-y="0"
     inkscape:window-maximized="1" />
  <metadata
     id="metadata4674">
    <rdf:RDF>
      <cc:Work
         rdf:about="">
        <dc:format>image/svg+xml</dc:format>
        <dc:type
           rdf:resource="http://purl.org/dc/dcmitype/StillImage" />
        <dc:title></dc:title>
      </cc:Work>
    </rdf:RDF>
  </metadata>
  <g
     inkscape:label="Layer 1"
     inkscape:groupmode="layer"
     id="layer1">
    <g
       id="g4540"
       inkscape:label="Clip"
       transform="matrix(16.469372,0,0,16.469372,-2445.1889,-2035.716)"
       style="fill:#000000">
      <g
         style="fill:#000000;stroke:#000000"
         transform="matrix(0.04001471,0,0,0.04001471,175.96754,110.31284)"
         inkscape:label="Clip"
         id="g4524">
        <g
           style="fill:#000000;stroke:#000000"
           transform="translate(-940.78875,80.180857)"
           id="g4522">
          <path
             inkscape:connector-curvature="0"
             d="m 355.37328,332.13936 c -1.42848,-0.23804 -2.05221,0.31738 -2.90571,2.00169 -0.50979,1.00571 -1.29009,2.38488 -1.74342,3.07366 -1.30379,1.98087 -3.40235,7.34505 -6.08265,15.54887 -2.84448,8.70629 -3.79822,13.0233 -4.6621,21.16663 -0.21622,2.03727 -0.53624,4.23587 -0.71028,4.89458 -0.41987,1.58923 0.30152,10.90714 0.91691,11.85532 0.34714,0.53492 0.48401,3.13707 0.55542,10.44773 l 0.0906,9.75034 -1.85967,3.82269 c -1.9806,4.07361 -3.98303,7.12856 -6.92213,10.55101 -2.84256,3.31011 -3.09786,3.08179 3.1382,2.87992 4.62658,-0.1501 5.5015,-0.10183 5.5015,0.32267 0,0.27837 -0.14282,0.50385 -0.32267,0.50385 -0.32928,0 -3.09779,2.23391 -5.79853,4.67499 -1.86469,1.68537 -1.45678,2.02014 2.47956,2.02755 5.46799,0.0132 5.40676,0.24134 -1.21392,5.34652 -1.79481,1.38399 -3.25444,2.71852 -3.25444,2.97031 0,1.03606 0.0833,1.0186 8.67845,-2.05341 1.38009,-0.49326 2.70556,-0.78043 2.94446,-0.63278 0.5693,0.35177 -0.11902,1.72458 -2.0663,4.08096 -2.1432,2.59361 -2.06286,2.69703 2.16965,2.47955 1.98873,-0.10249 5.04665,-0.35044 6.79292,-0.54219 5.39063,-0.59179 4.84499,-0.78883 8.7818,3.22858 1.93399,1.97359 4.7753,5.00725 6.30217,6.74128 5.35162,6.0775 10.48132,10.59373 16.51749,14.54158 7.40098,4.84049 7.89028,5.12144 9.29834,5.13989 0.78546,0.0132 3.1735,0.49327 5.30777,1.0719 5.37502,1.45712 6.69619,1.73403 9.53082,2.0534 3.1255,0.35243 23.00117,0.0701 25.55749,-0.36168 1.05431,-0.17787 2.72725,-0.32268 3.73223,-0.32268 1.00505,0 2.68176,-0.15208 3.71933,-0.34846 1.03758,-0.19704 3.31673,-0.52566 5.06247,-0.72323 7.3018,-0.82712 11.87932,-2.55183 17.66681,-6.6509 1.94033,-1.37414 4.09219,-2.80389 4.77833,-3.17688 1.31992,-0.71755 7.60047,-6.57671 15.52309,-14.48993 3.26938,-3.26555 5.13037,-5.43374 5.91477,-6.88339 0.63013,-1.16413 1.78891,-3.15551 2.58283,-4.41671 0.79399,-1.26114 1.88625,-3.0734 2.41503,-4.04214 1.14767,-2.1028 0.96041,-2.05916 10.40898,-2.63455 3.49247,-0.21291 7.30762,-0.53823 8.47182,-0.71028 7.79592,-1.15402 7.49613,-1.07824 7.07705,-1.75638 -0.12629,-0.20432 -2.09519,-1.31417 -4.36508,-2.47956 -3.85045,-1.97684 -7.82608,-5.03251 -7.82608,-6.00516 0,-0.52236 1.30372,-0.43904 2.20833,0.14216 1.0994,0.70651 4.48694,1.26564 7.69701,1.26564 4.54235,0 4.92599,-0.50319 1.64008,-2.15669 -1.21267,-0.6103 -2.8384,-1.56199 -3.61599,-2.11794 l -1.40766,-1.02025 -4.49422,0.34846 c -2.46877,0.18844 -4.72358,0.25258 -5.01075,0.14216 -0.8529,-0.3273 -1.00558,-1.46208 -0.95565,-6.79299 0.0331,-3.62618 -0.088,-5.24404 -0.41326,-5.70814 -0.24994,-0.3564 -1.42578,-1.3065 -2.62166,-2.10505 l -2.18253,-1.44641 -3.09945,1.52391 c -1.70342,0.8369 -3.94699,2.11357 -4.99786,2.84117 -2.29812,1.59128 -3.0523,1.66626 -3.33186,0.34846 -0.11307,-0.5336 -1.47465,-2.90207 -3.03492,-5.26902 -1.56027,-2.36695 -2.84111,-4.5405 -2.84111,-4.82998 0,-0.65196 0.38219,-0.9019 2.82822,-1.85967 1.06713,-0.41789 3.60627,-1.45018 5.6436,-2.29878 l 3.69349,-1.54969 0.47805,-1.9888 0.47806,-1.98881 -2.23418,-2.38916 c -1.23125,-1.31576 -4.20876,-4.4236 -6.61215,-6.90917 l -4.36508,-4.52007 0.21953,-1.91131 c 0.35507,-3.02175 2.84772,-9.84397 4.75248,-13.01767 0.95288,-1.58778 2.05314,-3.52342 2.4537,-4.31337 1.14331,-2.25501 9.36552,-12.05244 12.22991,-14.56743 1.21914,-1.07038 0.74849,-1.21211 1.31727,-0.69709 1.12367,1.01689 3.21397,6.06269 3.90011,9.41458 0.3716,1.81425 0.85508,3.85383 1.0719,4.5329 1.04465,3.27176 1.67512,12.04536 1.11064,15.51019 -0.2063,1.26762 -0.57724,3.58855 -0.81363,5.16574 l -0.42582,2.86697 -0.9944,0.89108 c -4.35318,2.10729 -8.03978,5.65696 -9.87948,9.53082 -1.24824,2.62826 -1.27595,6.69189 -0.0661,9.44037 0.80609,1.82885 4.41249,5.64492 6.638,7.02541 0.53691,0.33325 1.40059,0.98223 1.91131,1.44641 0.9103,0.82724 1.03652,0.83538 6.53466,0.72323 l 5.60486,-0.11637 1.74342,-1.23978 c 1.41652,-1.01754 2.04289,-1.83884 3.34482,-4.41672 2.5681,-5.08494 3.30925,-7.18873 3.24155,-9.15631 -0.12828,-3.72138 -2.0261,-7.48409 -4.85584,-9.64699 -2.24469,-1.71573 -8.10987,-4.63625 -9.31123,-4.63625 -1.3578,0 -1.47272,-0.28035 -1.059,-2.5183 0.6427,-3.47766 0.98686,-11.30916 0.65857,-15.09693 -0.17522,-2.02273 -0.7032,-5.1225 -1.17518,-6.88332 -0.47211,-1.76081 -1.0471,-4.21683 -1.26563,-5.46276 -0.44896,-2.56056 -2.60029,-7.12373 -4.24884,-9.00132 -1.30715,-1.48873 -2.34718,-1.58824 -6.14718,-0.59377 -11.41152,2.98558 -29.50574,12.13852 -35.37243,17.89929 l -2.57002,2.51831 -3.25436,-1.04611 c -1.78965,-0.57592 -3.83988,-1.11389 -4.55882,-1.20103 -0.71894,-0.0873 -1.8274,-0.37888 -2.4666,-0.64535 -1.76028,-0.7352 -5.09532,-1.53038 -8.04566,-1.92427 -1.4552,-0.1944 -4.94814,-0.82863 -7.76154,-1.40766 -2.81341,-0.57922 -5.2197,-0.93793 -5.35948,-0.80066 -0.13952,0.13753 -0.30747,2.4662 -0.36169,5.17863 -0.082,4.10469 -0.17919,4.93326 -0.61956,4.93326 -0.44103,0 -0.55145,-0.83571 -0.63278,-5.03661 l -0.10315,-5.0495 -0.92987,-0.34846 c -0.51442,-0.19572 -1.89557,-0.3154 -3.07359,-0.25853 l -2.14379,0.10315 -0.18051,9.53082 c -0.15076,8.15305 -0.24465,9.51786 -0.69739,9.51786 -0.45491,0 -0.55211,-1.34015 -0.63278,-9.60832 l -0.0906,-9.60825 h -2.81532 -2.81532 v 5.02372 c -0.003,2.76487 -0.17059,5.26208 -0.36168,5.55315 -0.72972,1.11163 -1.04069,-0.5541 -1.04605,-5.5919 v -5.06246 l -1.14939,0.16795 c -0.6308,0.0932 -2.73472,0.36697 -4.67499,0.60699 -1.94027,0.24003 -5.74093,0.96895 -8.44596,1.62719 -5.20681,1.26709 -5.47691,1.24368 -5.48862,-0.47806 -0.004,-0.5217 -1.40931,-2.29825 -4.13259,-5.20449 -3.67927,-3.92649 -4.71857,-4.78026 -9.27249,-7.7099 -2.81717,-1.81233 -6.38482,-3.96822 -7.94238,-4.77834 -2.76646,-1.43887 -9.07253,-3.56435 -10.5639,-3.56435 -0.41194,0 -1.67433,-0.32201 -2.81533,-0.72317 -0.69249,-0.24332 -1.26728,-0.41127 -1.74349,-0.49062 z m 1.216,4.10118 1.23801,0.54795 c 2.81235,1.68154 5.25415,4.1 6.67669,6.62512 0.54682,0.97013 2.09843,3.42549 3.44817,5.46276 2.92878,4.42068 5.33739,10.47041 6.17303,15.48433 l 0.55543,3.31897 -0.80074,0.65857 c -0.44433,0.3597 -1.1156,0.64535 -1.48515,0.64535 -1.06793,0 -8.83357,4.0272 -14.41238,7.46452 -2.81347,1.73345 -5.43955,3.34172 -5.82438,3.57731 -2.50084,1.53098 -7.52753,6.72638 -7.88895,7.16186 -0.24002,0.28895 -0.70962,0.51641 -1.04604,0.51641 -0.5098,0 -0.65461,-0.47013 -0.85238,-2.84118 -0.28167,-3.38211 0.67543,-11.45932 2.31168,-19.53943 1.18298,-5.84164 5.42494,-18.76013 7.55491,-23.00044 0.69818,-1.38994 2.02398,-3.37603 2.94446,-4.40383 z m 163.9589,34.51273 c -0.73197,0 -6.28928,7.17709 -6.28928,8.12316 0,0.16927 1.06654,0.89905 2.37627,1.62718 1.30967,0.7282 3.22786,1.61456 3.97761,2.32457 l 1.57554,1.00736 0.89112,-1.02025 c 0.48533,-0.56138 1.86866,-2.1598 3.07359,-3.55146 1.20494,-1.39166 2.11047,-2.73346 2.01466,-2.9832 -0.0959,-0.24994 -1.0026,-0.96095 -2.01466,-1.57555 -1.01212,-0.61493 -2.60869,-1.75063 -3.55145,-2.53119 -0.94276,-0.78063 -1.86628,-1.42062 -2.0534,-1.42062 z m -24.11108,2.81532 c -0.6394,0 -5.86921,3.26124 -6.06976,3.78393 -0.3392,0.88359 5.15431,8.5511 6.13429,8.56221 0.22812,0.002 0.85998,-0.51773 1.40773,-1.16228 0.54749,-0.64403 1.68074,-1.70111 2.50534,-2.35042 0.8246,-0.64932 1.49805,-1.42525 1.49805,-1.71758 0,-0.72013 -4.92142,-7.11586 -5.47565,-7.11586 z m 13.59881,15.52308 c 2.51619,0.15605 4.92037,2.36319 4.92037,5.1916 0,2.77591 -2.38137,5.40153 -4.89451,5.38527 -0.70678,-0.005 -2.04838,-0.43376 -3.02202,-0.96855 -1.86403,-1.02429 -2.21144,-1.66058 -2.27293,-4.15845 -0.0397,-1.67559 1.2819,-3.97047 2.80243,-4.86873 0.77613,-0.45822 1.62791,-0.63344 2.46666,-0.5812 z m -0.96854,1.43352 c -0.54749,0.11042 -1.06357,0.37755 -1.48516,0.82652 -0.91439,0.97324 -1.54347,3.36194 -1.22688,4.62334 0.28762,1.14662 2.12937,2.27849 3.71933,2.28583 1.03474,0.005 1.49554,-0.23672 2.37621,-1.23978 1.19105,-1.35649 1.28355,-1.787 0.73613,-3.75809 -0.54484,-1.96109 -2.47804,-3.0683 -4.11963,-2.73782 z m -119.70323,1.07189 c 0.25523,-0.0397 0.48269,0.004 0.68449,0.12894 0.46616,0.28829 6.31441,7.62083 9.15625,11.48088 1.21419,1.6492 3.06506,4.10456 4.1197,5.46276 1.78528,2.29911 2.39479,3.70637 1.58844,3.70637 -0.18713,0 -0.94448,-0.78512 -1.67883,-1.74342 -0.73441,-0.9583 -3.01342,-3.93245 -5.06246,-6.61215 -2.04897,-2.67971 -4.73549,-6.1866 -5.96641,-7.78733 -1.23098,-1.60074 -2.48743,-2.90571 -2.80243,-2.90571 -0.31474,0 -1.4437,1.06422 -2.50541,2.36331 -1.06171,1.29902 -2.89096,3.33153 -4.0551,4.52 -2.98962,3.05204 -6.13409,6.69626 -7.91646,9.16921 -0.83915,1.16413 -1.76426,2.31451 -2.0663,2.55705 -0.73712,0.59178 -1.47226,0.56071 -1.47226,-0.0661 0,-0.2797 0.16728,-0.62089 0.37425,-0.74903 0.20696,-0.12761 1.26397,-1.43444 2.35042,-2.9186 2.05492,-2.80726 3.43025,-4.41593 7.6453,-8.91094 1.37863,-1.47021 3.37537,-3.73408 4.4425,-5.0366 1.3785,-1.68253 2.39922,-2.5429 3.16405,-2.66034 z m 60.36174,1.73053 c 0.34053,0 1.21624,0.94475 2.04045,2.20833 0.79094,1.21267 1.70613,2.60149 2.04044,3.08655 0.33458,0.48534 1.55915,2.30883 2.71204,4.0551 1.1529,1.74621 2.6922,3.80847 3.42232,4.58461 2.7531,2.9266 5.9793,7.07262 5.9793,7.67108 0,1.213 -0.91274,0.54551 -3.5256,-2.58284 -3.87783,-4.64252 -9.01626,-11.57913 -11.765,-15.8847 -0.35706,-0.56005 -0.8492,-1.02019 -1.09768,-1.02019 -0.56204,0 -2.54714,2.17408 -5.24324,5.72104 -1.13537,1.49361 -2.44055,2.95807 -2.89282,3.25443 -0.45227,0.29622 -1.96936,1.92711 -3.37067,3.62895 -4.50341,5.46944 -6.67669,7.42551 -6.67669,6.03101 0,-0.22482 1.07725,-1.61343 2.38917,-3.08656 1.31185,-1.47312 3.02294,-3.4647 3.79683,-4.42961 0.77382,-0.96491 2.01022,-2.3118 2.75072,-2.99616 0.74049,-0.68429 2.46329,-2.67045 3.83558,-4.41672 3.25291,-4.13934 4.87229,-5.82432 5.60485,-5.82432 z m 43.57302,2.95736 c -0.23539,-0.0899 -1.6045,0.33655 -3.0478,0.94276 -1.4433,0.60633 -3.63411,1.51874 -4.86873,2.02755 -1.23462,0.50847 -2.32311,1.11672 -2.41495,1.35602 -0.14283,0.37226 3.55304,6.12741 5.12699,7.98106 0.64866,0.76384 1.237,0.78381 1.83382,0.0661 0.25192,-0.30283 1.948,-1.27614 3.75808,-2.15668 1.81008,-0.88054 3.38311,-1.76121 3.49981,-1.95006 0.11704,-0.18911 -0.1124,-0.68839 -0.50384,-1.11064 -1.092,-1.17749 -2.44062,-3.93383 -2.71204,-5.54026 -0.13423,-0.79425 -0.43641,-1.52403 -0.67153,-1.61429 z m 32.19552,1.16228 -0.54244,1.29142 c -0.2149,0.53096 -0.82584,2.08706 -1.57552,3.70644 -0.74969,1.61938 -1.35602,3.15406 -1.35602,3.40942 0,0.54947 7.2528,4.37242 8.32972,4.39087 0.60435,0.0132 1.01093,-0.60898 2.22129,-3.35772 0.81865,-1.85927 1.58427,-3.93476 1.69178,-4.59756 0.18581,-1.14694 0.11506,-1.23541 -1.35602,-1.88545 -0.84992,-0.37557 -2.84924,-1.16447 -4.4554,-1.75639 z m -20.40473,12.92729 v 5.06239 5.04957 l 2.19544,-0.18051 c 1.21273,-0.0999 3.07286,-0.26383 4.13259,-0.36169 1.05973,-0.0979 2.05843,-0.37094 2.20839,-0.60699 0.324,-0.51046 0.31606,-4.64325 -0.0132,-7.12876 l -0.23275,-1.76922 -4.14549,-0.0264 z m 10.7835,6.59925 c -0.38615,0.14283 -0.55542,0.62221 -0.55542,1.44641 0,0.99526 0.0331,1.02019 1.93716,1.02019 1.4556,0 1.93709,-0.13489 1.93709,-0.51641 0,-0.27969 -0.66901,-0.90811 -1.48509,-1.39477 -0.85224,-0.50847 -1.44773,-0.69837 -1.83388,-0.55542 z m -96.32821,6.53466 c 1.58017,0.1977 2.06464,0.40599 2.35042,1.03315 0.45955,1.00842 -0.35176,2.67521 -1.83381,3.77098 l -1.059,0.77487 v 3.90012 3.88721 l 2.06629,1.95006 c 1.1324,1.07236 2.96033,2.57464 4.06806,3.33193 1.7796,1.2167 2.31293,1.39853 4.55875,1.53679 2.15913,0.13291 3.06136,-0.0132 6.01805,-0.96854 2.31326,-0.74579 3.60184,-1.00862 3.83558,-0.77488 0.19373,0.19373 0.25457,0.50318 0.14216,0.68449 -0.26912,0.43508 -5.20191,2.09565 -7.51617,2.5312 -3.58279,0.6743 -7.68437,-1.15105 -12.35903,-5.50151 -1.11408,-1.03685 -2.08197,-1.88552 -2.14379,-1.88552 -0.0595,0 -1.33354,1.23554 -2.82822,2.75078 -3.56117,3.61004 -6.90659,5.42448 -10.27985,5.56605 -1.27594,0.0529 -2.63388,0.0265 -3.02195,-0.0661 -1.37632,-0.31739 -5.64347,-3.50299 -5.75984,-4.30048 -0.14547,-0.99791 0.34581,-0.97734 1.5885,0.0661 2.50746,2.1026 4.45507,3.03689 6.27639,3.03491 2.58475,-0.003 4.03262,-0.5098 6.94791,-2.41502 1.68663,-1.10218 3.28512,-2.53827 4.57164,-4.1326 l 1.97591,-2.4537 0.24531,-3.56435 c 0.24399,-3.44096 0.23077,-3.60269 -0.646,-4.89458 -1.84645,-2.7209 -0.70076,-4.29908 2.80243,-3.86136 z m -27.57214,54.93766 c -1.01894,0.19175 -0.82533,1.11758 0.38747,3.46106 0.68356,1.32078 1.25274,2.89817 1.25274,3.49981 0,0.94488 0.20299,1.18133 1.49805,1.76922 0.8246,0.37425 1.88234,0.68026 2.35042,0.68449 0.46814,0.004 2.44649,0.55013 4.40376,1.21392 5.11899,1.73549 5.96832,1.91978 10.08617,2.15675 2.03727,0.11704 4.2542,0.34185 4.93326,0.50385 2.47672,0.5898 8.90082,0.40665 11.80369,-0.3359 1.50849,-0.38615 2.88032,-0.60699 3.0478,-0.50384 0.61493,0.3802 7.01543,-1.21743 9.01422,-2.24708 0.36499,-0.18844 1.68332,-0.78241 2.94452,-1.33016 1.26113,-0.54749 2.48326,-1.16546 2.71197,-1.36892 0.69725,-0.62022 2.92026,-5.9873 2.6087,-6.30224 -0.16068,-0.16199 -2.41774,-0.0463 -5.01076,0.2711 -10.70236,1.30921 -14.98968,1.58903 -26.0612,1.67883 -12.74386,0.10315 -13.28408,0.0397 -21.15366,-2.41496 -0.86983,-0.27176 -2.39129,-0.59377 -3.38357,-0.71028 -0.6189,-0.0727 -1.09385,-0.0899 -1.43352,-0.0265 z m -22.768,6.5476 c -0.83353,0 -0.99442,0.20374 -0.99442,0.87818 0,0.61955 1.20123,1.88162 4.84287,5.06239 14.43419,12.60765 17.57675,15.4085 21.60573,19.20367 2.42574,2.28496 5.39572,4.86893 6.59926,5.74689 1.20355,0.87796 2.46422,1.99601 2.78947,2.49245 0.60898,0.92894 5.46303,5.27445 9.60832,8.58806 1.29003,1.03123 2.47869,2.09777 2.63448,2.37627 0.15604,0.27838 0.56004,0.51641 0.90401,0.51641 0.34383,0 2.92158,-1.55636 5.7211,-3.46099 2.79952,-1.9047 11.99027,-8.16403 20.43049,-13.8959 8.44021,-5.73181 16.85675,-11.43823 18.70002,-12.69481 1.84327,-1.25657 4.53706,-2.98307 5.99226,-3.82261 1.45521,-0.83961 2.77883,-1.73345 2.93157,-1.98887 0.15274,-0.25523 1.0227,-0.97377 1.93709,-1.60133 2.56645,-1.76128 3.57691,-3.3523 2.54416,-3.99057 -0.51575,-0.31871 -3.83744,0.72682 -5.2872,1.94484 -1.6018,1.1838 -7.30511,4.89083 -9.52554,6.73361 -0.67913,0.31408 -1.98959,1.1443 -2.90577,1.84677 -1.85127,1.41943 -6.19513,4.11964 -6.62505,4.11964 -0.15208,0 -0.51905,-0.36433 -0.82652,-0.80067 -0.30746,-0.4364 -0.94468,-1.25465 -1.42055,-1.82092 l -0.86527,-1.03315 -2.23418,1.42056 c -7.71268,4.91058 -13.17167,6.71914 -22.80677,7.55491 -5.56465,0.48269 -10.93954,0.0959 -15.05818,-1.09768 -2.75667,-0.79875 -8.13222,-3.09403 -11.46792,-4.89458 -3.33933,-1.80247 -4.06151,-1.84235 -4.73959,-0.21952 -0.28366,0.67906 -0.64204,1.23977 -0.80066,1.23977 -0.46021,0 -11.56945,-11.00336 -17.44766,-16.59599 -1.4273,-1.35794 -3.2024,-1.652 -3.2024,-1.652 z m 25.11842,3.7581 c -0.1977,0.12232 -0.36169,1.0791 -0.36169,2.13083 0,1.05179 -0.26647,3.1895 -0.5812,4.75248 -0.53889,2.67336 -0.52633,2.88727 0.0529,3.5256 0.33788,0.37293 1.41917,0.9501 2.41503,1.27853 0.99579,0.32862 2.37296,1.04869 3.0478,1.6014 0.67477,0.55277 1.36151,1.00729 1.5368,1.00729 0.17522,0 1.76921,0.6103 3.53849,1.36898 3.65506,1.56682 4.25565,1.7425 8.16191,2.33746 3.74241,0.56997 5.81459,0.59443 11.48087,0.14216 7.35054,-0.58649 12.39118,-1.94324 16.98239,-4.5717 4.20745,-2.40881 5.94069,-3.6519 6.13429,-4.40383 0.10051,-0.39078 -0.17125,-1.48535 -0.59377,-2.44081 -0.63675,-1.43927 -0.72178,-2.14756 -0.55542,-4.13259 0.11042,-1.31767 0.0674,-2.48525 -0.0906,-2.58284 -0.15803,-0.0979 -2.60902,0.62617 -5.44986,1.60139 -3.50993,1.20447 -5.87946,1.81021 -7.37407,1.88546 -1.20976,0.0595 -3.80497,0.45029 -5.77274,0.86527 -3.13059,0.66055 -3.96802,0.70155 -6.70254,0.38747 -1.71877,-0.19771 -5.05658,-0.51046 -7.41282,-0.69739 -4.39708,-0.34912 -6.92993,-0.86295 -10.21531,-2.09215 -2.66721,-0.9979 -7.81391,-2.22591 -8.23934,-1.96295 z m 5.13989,4.32626 c 0.20696,-0.20696 3.00793,0.67054 4.81708,1.51101 1.43834,0.66823 1.28534,1.53501 -0.21952,1.25267 -1.39397,-0.26118 -1.73179,0.0529 -2.36338,2.18254 -0.52699,1.77642 -1.27271,2.57405 -1.60133,1.71758 -0.11902,-0.30945 0.0397,-1.31007 0.34846,-2.22123 0.76502,-2.24522 0.72191,-2.75845 -0.31011,-3.22858 -0.86276,-0.39342 -1.08446,-0.80112 -0.6716,-1.21399 z m 36.53472,1.84678 c 0.88239,0 6.01295,3.83802 5.83734,4.36507 -0.25722,0.77098 -0.92174,0.54485 -3.04781,-1.02025 -1.21287,-0.89284 -2.30698,-1.5286 -2.42792,-1.40766 -0.121,0.121 -0.28564,1.31846 -0.36168,2.66033 -0.14216,2.51513 -0.69368,3.57228 -1.40766,2.71204 -0.26647,-0.32069 -0.27771,-1.24784 -0.0397,-3.08655 0.51508,-3.96683 0.60765,-4.22298 1.4464,-4.22298 z m -24.66644,1.16228 c 3.19982,-0.0899 3.79683,0.28961 3.79683,2.41496 0,1.32084 -0.0998,1.45097 -1.54969,2.09215 -1.20658,0.5336 -1.59029,0.91314 -1.75638,1.74342 -0.33987,1.6982 -1.28217,1.37698 -1.29142,-0.43904 -0.007,-1.33156 -0.13621,-1.55763 -1.12354,-2.02755 -1.33513,-0.63543 -1.78879,-1.71215 -1.21393,-2.86703 0.38351,-0.76972 0.66783,-0.84735 3.13813,-0.91691 z m 12.99189,0.21952 c 1.77589,-0.078 3.53479,-0.0529 3.71933,0.12894 0.61295,0.61295 -0.27374,1.31727 -1.65303,1.31727 h -1.44641 l 0.11637,2.27293 c 0.11571,2.25607 -0.36168,3.60091 -0.94276,2.6604 -0.14282,-0.23143 -0.33788,-1.45084 -0.43905,-2.71204 l -0.19373,-2.29878 -1.31728,0.20696 c -1.4876,0.23804 -2.49086,-0.42582 -1.66599,-1.11064 0.24531,-0.20366 2.04679,-0.38748 3.82268,-0.46484 z m -11.49379,0.86527 c -0.56839,0.10211 -0.68374,0.68858 -0.749,1.25273 -0.11902,1.02985 0.52149,1.36363 1.21392,0.67134 0.23275,-0.23275 0.3896,-0.72313 0.42582,-1.08479 0.0734,-0.73283 -0.34747,-0.93687 -0.89074,-0.83928 z m -3.22856,-0.1147 c -0.49984,0.31903 -0.52832,1.09534 -0.41326,1.39474 0.27043,0.70505 1.83922,0.55905 1.98879,-0.12914 0.20663,-0.95079 -0.90966,-1.87988 -1.57553,-1.2656 z"
             style="fill:#000000;stroke:#000000;stroke-width:0.35277778"
             id="path4520"
             sodipodi:nodetypes="ccccccccccccsscccssccccccsccccsccccccccccccscsccccccccccccsscccccccccccccccccccccccccccccscccccccccccccccsccccccscccccccccccccccsccccccccccscccscccccssccccccccssccccsscscccccccccccccccccscccsccccsccccccsccccsccscccsccccsccccccsccccccccscccccccccccccccccssscccccccccccccscccscccccccccccccccsccccccccccccccccccsccccccsccccccccccsccccscccsccccsccccscccccccccccccccccccccccccsccscccsscsccccccccsccccccsccsccssccsc" />
        </g>
      </g>
    </g>
  </g>
</svg>
